<!--?xml version="1.0" encoding="UTF-8" standalone="no"?-->
<svg viewport-fill="#FFFFFF" xmlns:dc="http://purl.org/dc/elements/1.1/" xmlns:cc="http://creativecommons.org/ns#" xmlns:rdf="http://www.w3.org/1999/02/22-rdf-syntax-ns#" xmlns:svg="http://www.w3.org/2000/svg" xmlns="http://www.w3.org/2000/svg" xmlns:xlink="http://www.w3.org/1999/xlink" id="svg53" viewBox="0 0 1024 768" height="768px" width="1024px" version="1.1">
  
  <defs id="defs57"></defs>
  <style><![CDATA[   #title path, #tagline path, #letter path{ fill: #04207E !important; } #icon *{ fill: #04207E !important; } ]]> </style><g id="logo-group"><rect x="0" y="0" width="1024" height="768" style="fill: #FFFFFF" />
    <g id="logo-center" transform="translate(173.98051598837216 0)">
      <g id="icon" transform=""><svg x="-14.206395348837209" y="291.1848837209302" width="189.41860465116278" height="189.41860465116278" viewBox="0 0 100 100"><g><path d="M57.708,36.06H44.832c-0.801,0-1.545,0.208-2.178,0.572l-4.892-9.677c-0.874-1.728-2.981-2.42-4.709-1.547l-0.209,0.105   c-1.727,0.874-2.419,2.981-1.546,4.709l10.921,21.604c0.113,0.223,0.247,0.428,0.396,0.613l1.167,7.625l3.171,31.592   c0,1.386,1.126,2.343,2.512,2.343h3.61c1.387,0,2.513-0.957,2.513-2.343l3.172-31.592h1.285c2.278,0,4.124-1.935,4.124-4.209   L61.831,39.99C61.832,37.715,59.986,36.06,57.708,36.06z"></path><circle cx="51.271" cy="26.389" r="6.911"></circle><path d="M51.271,15.046c0.763,0,1.381-0.619,1.381-1.381V5.381C52.652,4.618,52.034,4,51.271,4c-0.764,0-1.38,0.618-1.38,1.381   v8.284C49.892,14.427,50.51,15.046,51.271,15.046z"></path><path d="M41.793,17.388c0.256,0.442,0.72,0.69,1.197,0.69c0.234,0,0.472-0.06,0.689-0.186c0.661-0.381,0.887-1.226,0.505-1.886   l-4.142-7.174c-0.381-0.66-1.226-0.887-1.886-0.506c-0.661,0.382-0.887,1.226-0.505,1.887L41.793,17.388z"></path><path d="M64.389,8.327c-0.66-0.381-1.505-0.154-1.886,0.506l-4.142,7.174c-0.383,0.66-0.156,1.505,0.505,1.886   c0.217,0.126,0.454,0.186,0.688,0.186c0.478,0,0.939-0.248,1.195-0.69l4.145-7.174C65.275,9.553,65.049,8.709,64.389,8.327z"></path></g><g><path d="M79.613,47.568c0-1.229-0.995-2.26-2.223-2.26h-6.951c-1.228,0-2.224,1.031-2.224,2.26l-1.26,11.188   c0,1.229,0.996,2.219,2.224,2.219h0.694l1.71,14.385c0,0.746,0.607,1.279,1.355,1.279h1.947c0.746,0,1.355-0.533,1.355-1.279   l1.713-14.385h0.693c1.228,0,2.224-0.99,2.224-2.219L79.613,47.568z"></path><circle cx="73.917" cy="40.366" r="3.729"></circle></g><g><path d="M33.619,47.568c0-1.229-0.996-2.26-2.224-2.26h-6.95c-1.228,0-2.224,1.031-2.224,2.26l-1.26,11.188   c0,1.229,0.996,2.219,2.224,2.219h0.694l1.71,14.385c0,0.746,0.607,1.279,1.356,1.279h1.946c0.747,0,1.356-0.533,1.356-1.279   l1.713-14.385h0.693c1.228,0,2.224-0.99,2.224-2.219L33.619,47.568z"></path><circle cx="27.922" cy="40.366" r="3.729"></circle></g><g><path d="M92.818,48.702c0-1.075-0.871-1.978-1.945-1.978h-6.081c-1.074,0-1.946,0.902-1.946,1.978l-1.102,9.79   c0,1.074,0.871,1.939,1.945,1.939h0.606l1.496,12.588c0,0.652,0.532,1.119,1.188,1.119h1.703c0.652,0,1.187-0.467,1.187-1.119   l1.499-12.588h0.605c1.074,0,1.945-0.865,1.945-1.939L92.818,48.702z"></path><circle cx="87.834" cy="42.4" r="3.263"></circle></g><g><path d="M18.86,48.702c0-1.075-0.872-1.978-1.946-1.978h-6.081c-1.074,0-1.946,0.902-1.946,1.978l-1.102,9.79   c0,1.074,0.871,1.939,1.945,1.939h0.607l1.496,12.588c0,0.652,0.532,1.119,1.188,1.119h1.703c0.653,0,1.187-0.467,1.187-1.119   l1.499-12.588h0.606c1.074,0,1.945-0.865,1.945-1.939L18.86,48.702z"></path><circle cx="13.875" cy="42.4" r="3.263"></circle></g></svg></g>
      <g id="title" style="font-style:normal;font-weight:600;font-size:72px;line-height:1;font-family:Prompt;font-variant-ligatures:none;text-align:center;text-anchor:middle" aria-label="Opus">
        <path id="path61" style="font-style: normal; font-weight: 600; font-size: 72px; line-height: 1; font-family: Prompt; font-variant-ligatures: none; text-align: center; text-anchor: middle;" d="m 447.857,1.08 q -7.56,0 -13.752,-3.312 -6.12,-3.312 -9.648,-9.216 -3.528,-5.976 -3.528,-13.68 0,-7.704 3.528,-13.68 3.528,-5.976 9.648,-9.288 6.192,-3.312 13.752,-3.312 7.56,0 13.608,3.312 6.12,3.312 9.648,9.288 3.528,5.976 3.528,13.68 0,7.704 -3.528,13.68 -3.528,5.904 -9.648,9.216 -6.048,3.312 -13.608,3.312 z m 0,-10.08 q 4.32,0 7.848,-1.944 3.6,-2.016 5.688,-5.616 2.088,-3.672 2.088,-8.568 0,-4.824 -2.088,-8.424 -2.016,-3.672 -5.616,-5.616 -3.528,-2.016 -7.92,-2.016 -4.464,0 -8.064,2.016 -3.528,1.944 -5.616,5.616 -2.088,3.6 -2.088,8.424 0,4.896 2.088,8.568 2.088,3.6 5.688,5.616 3.6,1.944 7.992,1.944 z" transform="translate(0 327.142) translate(220.8470930232558 -27.11200000000001) scale(2.5) translate(-420.929 51.408)"></path>
        <path id="path63" style="font-style: normal; font-weight: 600; font-size: 72px; line-height: 1; font-family: Prompt; font-variant-ligatures: none; text-align: center; text-anchor: middle;" d="m 480.72838,-34.56 h 10.51199 v 3.816 q 5.256,-4.896 12.96,-4.896 5.4,0 9.50401,2.304 4.17599,2.232 6.48,6.408 2.304,4.104 2.304,9.576 0,5.4 -2.304,9.576 -2.30401,4.176 -6.48,6.552 -4.10401,2.304 -9.50401,2.304 -3.672,0 -6.98399,-1.08 -3.312,-1.08 -5.61601,-3.096 v 18.864 h -10.87199 z m 20.736,27.144 q 4.392,0 7.12799,-2.736 2.808,-2.736 2.808,-7.2 0,-4.464 -2.808,-7.128 -2.73599,-2.664 -7.12799,-2.664 -3.38401,0 -6.048,1.8 -2.664,1.8 -3.81601,4.752 v 6.552 q 1.08001,3.024 3.74401,4.824 2.73599,1.8 6.12,1.8 z" transform="translate(0 327.142) translate(370.34554302325597 12.308000000000007) scale(2.5) translate(-480.72838 35.64)"></path>
        <path id="path65" style="font-style: normal; font-weight: 600; font-size: 72px; line-height: 1; font-family: Prompt; font-variant-ligatures: none; text-align: center; text-anchor: middle;" d="m 542.29287,1.08 q -7.05599,0 -10.58399,-3.816 -3.528,-3.888 -3.528,-10.296 V -34.56 h 10.87199 v 20.376 q 0,6.768 6.264,6.768 2.736,0 5.112,-1.296 2.37601,-1.296 3.96,-3.888 v -21.96 h 10.87201 V 0 h -10.51201 v -4.176 q -2.30399,2.664 -5.61599,3.96 -3.24001,1.296 -6.84001,1.296 z" transform="translate(0 327.142) translate(488.97679302325594 15.007999999999996) scale(2.5) translate(-528.18088 34.56)"></path>
        <path id="path67" style="font-style: normal; font-weight: 600; font-size: 72px; line-height: 1; font-family: Prompt; font-variant-ligatures: none; text-align: center; text-anchor: middle;" d="m 587.02175,1.08 q -3.888,0 -8.352,-0.864 -4.392,-0.792 -6.912,-2.304 v -8.496 q 2.88,1.728 6.912,2.808 4.032,1.08 7.488,1.08 2.952,0 4.32,-0.504 1.368,-0.504 1.368,-1.872 0,-1.08 -0.792,-1.728 -0.792,-0.72 -2.448,-1.224 -1.584,-0.576 -5.328,-1.656 -4.392,-1.296 -6.912,-2.592 -2.448,-1.368 -3.744,-3.384 -1.224,-2.016 -1.224,-5.184 0,-5.4 4.248,-8.064 4.32,-2.736 11.664,-2.736 3.6,0 7.416,0.792 3.888,0.72 5.976,1.944 v 8.28 q -2.088,-1.368 -5.472,-2.232 -3.312,-0.864 -6.48,-0.864 -2.952,0 -4.608,0.576 -1.584,0.576 -1.584,2.16 0,1.368 1.512,2.088 1.584,0.72 5.832,1.8 l 1.44,0.36 q 4.536,1.224 7.056,2.736 2.52,1.44 3.528,3.528 1.08,2.016 1.08,5.112 0,4.752 -4.104,7.632 -4.104,2.808 -11.88,2.808 z" transform="translate(0 327.142) translate(597.0189680232556 12.308000000000007) scale(2.5) translate(-571.39775 35.64)"></path>
      </g>
      <g id="tagline" style="font-style:oblique;font-weight:normal;font-size:32px;line-height:1;font-family:Lora;font-variant-ligatures:none;text-align:center;text-anchor:middle"></g>
    </g>
  </g>
</svg>
